<svg width="30" height="30" viewBox="0 0 30 30" fill="none" xmlns="http://www.w3.org/2000/svg">
<mask id="path-1-inside-1_66_11024" fill="white">
<path fill-rule="evenodd" clip-rule="evenodd" d="M15.8967 3.69215C15.5299 2.94887 14.47 2.94887 14.1032 3.69215L10.9672 10.0469C10.8214 10.3422 10.5395 10.5469 10.2135 10.594L3.20621 11.6069C2.38574 11.7255 2.05757 12.7335 2.65097 13.3124L7.7237 18.2611C7.95926 18.4909 8.06668 18.8218 8.01097 19.1462L6.81167 26.1283C6.67136 26.9451 7.52854 27.5683 8.26226 27.1829L14.5349 23.888C14.8261 23.7351 15.1738 23.7351 15.465 23.888L21.7376 27.1829C22.4714 27.5683 23.3285 26.9451 23.1882 26.1283L21.989 19.1466C21.9333 18.822 22.0409 18.4908 22.2768 18.261L27.3484 13.3203C27.9421 12.7419 27.6149 11.7338 26.7946 11.6144L19.7857 10.5944C19.4601 10.5471 19.1786 10.3425 19.033 10.0474L15.8967 3.69215Z"/>
</mask>
<path fill-rule="evenodd" clip-rule="evenodd" d="M15.8967 3.69215C15.5299 2.94887 14.47 2.94887 14.1032 3.69215L10.9672 10.0469C10.8214 10.3422 10.5395 10.5469 10.2135 10.594L3.20621 11.6069C2.38574 11.7255 2.05757 12.7335 2.65097 13.3124L7.7237 18.2611C7.95926 18.4909 8.06668 18.8218 8.01097 19.1462L6.81167 26.1283C6.67136 26.9451 7.52854 27.5683 8.26226 27.1829L14.5349 23.888C14.8261 23.7351 15.1738 23.7351 15.465 23.888L21.7376 27.1829C22.4714 27.5683 23.3285 26.9451 23.1882 26.1283L21.989 19.1466C21.9333 18.822 22.0409 18.4908 22.2768 18.261L27.3484 13.3203C27.9421 12.7419 27.6149 11.7338 26.7946 11.6144L19.7857 10.5944C19.4601 10.5471 19.1786 10.3425 19.033 10.0474L15.8967 3.69215Z" stroke="#333333" stroke-width="2" mask="url(#path-1-inside-1_66_11024)"/>
</svg>
