<svg width="30" height="30" viewBox="0 0 30 30" fill="none" xmlns="http://www.w3.org/2000/svg">
<mask id="path-1-inside-1_66_11030" fill="white">
<path fill-rule="evenodd" clip-rule="evenodd" d="M16.1967 3.31715C15.8299 2.57387 14.7701 2.57387 14.4033 3.31715L11.2673 9.67185C11.1215 9.96725 10.8396 10.1719 10.5136 10.219L3.50626 11.2319C2.68579 11.3505 2.35762 12.3585 2.95102 12.9374L8.02375 17.8861C8.2593 18.1159 8.36673 18.4468 8.31102 18.7712L7.11172 25.7533C6.97141 26.5701 7.82859 27.1933 8.56231 26.8079L14.835 23.513C15.1261 23.3601 15.4739 23.3601 15.765 23.513L22.0377 26.8079C22.7714 27.1933 23.6286 26.5701 23.4883 25.7533L22.2891 18.7716C22.2333 18.447 22.3409 18.1158 22.5768 17.886L27.6485 12.9453C28.2422 12.3669 27.9149 11.3588 27.0947 11.2394L20.0858 10.2194C19.7601 10.1721 19.4786 9.96749 19.333 9.67241L16.1967 3.31715Z"/>
</mask>
<path fill-rule="evenodd" clip-rule="evenodd" d="M16.1967 3.31715C15.8299 2.57387 14.7701 2.57387 14.4033 3.31715L11.2673 9.67185C11.1215 9.96725 10.8396 10.1719 10.5136 10.219L3.50626 11.2319C2.68579 11.3505 2.35762 12.3585 2.95102 12.9374L8.02375 17.8861C8.2593 18.1159 8.36673 18.4468 8.31102 18.7712L7.11172 25.7533C6.97141 26.5701 7.82859 27.1933 8.56231 26.8079L14.835 23.513C15.1261 23.3601 15.4739 23.3601 15.765 23.513L22.0377 26.8079C22.7714 27.1933 23.6286 26.5701 23.4883 25.7533L22.2891 18.7716C22.2333 18.447 22.3409 18.1158 22.5768 17.886L27.6485 12.9453C28.2422 12.3669 27.9149 11.3588 27.0947 11.2394L20.0858 10.2194C19.7601 10.1721 19.4786 9.96749 19.333 9.67241L16.1967 3.31715Z" fill="#26DFB3" stroke="#26DFA6" stroke-width="2" mask="url(#path-1-inside-1_66_11030)"/>
</svg>
