<svg width="70" height="25" viewBox="0 0 71 24" fill="none" xmlns="http://www.w3.org/2000/svg">
<rect x="0.5" y="0.5" width="70" height="23" rx="11.5" fill="white"/>
<path d="M11.792 11.63C14.004 11.392 15.74 10.482 16.426 9.18C17.098 10.482 18.834 11.392 21.06 11.63L21.564 10.496C19.226 10.258 17.602 9.278 17.406 8.144H21.102V6.982H11.764V8.144H15.432C15.236 9.278 13.612 10.258 11.274 10.496L11.792 11.63ZM19.296 16.838C19.296 17.566 18.246 17.972 16.398 17.972C14.55 17.972 13.514 17.566 13.514 16.838C13.514 16.082 14.55 15.69 16.398 15.69C18.246 15.69 19.296 16.082 19.296 16.838ZM22.138 13.422V12.274H10.7V13.422H15.698V14.584C13.402 14.724 12.044 15.522 12.044 16.838C12.044 18.266 13.682 19.078 16.398 19.078C19.128 19.078 20.752 18.266 20.752 16.838C20.752 15.522 19.422 14.738 17.14 14.598V13.422H22.138ZM24.4329 16.236H31.7549V19.092H33.1969V15.074H24.4329V16.236ZM26.0709 9.138H31.6989V10.384H26.0709V9.138ZM29.5989 12.834V11.532H33.1269V6.744H31.6989V8.032H26.0709V6.744H24.6429V11.532H28.1429V12.834H23.1449V14.01H34.6109V12.834H29.5989ZM39.4258 9.852H41.5958V8.662H39.4258V6.87H38.0538V8.662H35.8698V9.852H38.0538V10.3C38.0538 12.316 37.2138 14.472 35.4778 15.494L36.3038 16.586C37.5078 15.886 38.3058 14.612 38.7538 13.128C39.2158 14.5 40.0278 15.662 41.2178 16.306L42.0158 15.228C40.2798 14.29 39.4258 12.274 39.4258 10.3V9.852ZM42.4918 11.336H40.7838V12.512H42.4918V18.462H43.8498V6.688H42.4918V11.336ZM45.0398 6.436V19.078H46.4118V6.436H45.0398ZM49.0707 11.42L49.2527 12.596L56.7147 12.218C56.6447 13.142 56.5047 14.136 56.2387 15.27L57.6667 15.396C58.2267 12.736 58.2267 11 58.2267 9.166V7.64H49.4207V8.802H56.8127V9.166C56.8127 9.81 56.8127 10.454 56.7847 11.126L49.0707 11.42ZM48.0907 16.25V17.44H59.5147V16.25H48.0907Z" fill="#999999"/>
<rect x="0.5" y="0.5" width="70" height="23" rx="11.5" stroke="#D8D8D8"/>
</svg>
