<svg width="114" height="114" viewBox="0 0 114 114" fill="none" xmlns="http://www.w3.org/2000/svg">
<path d="M86.1667 39.4997C86.1666 36.514 85.0276 33.5284 82.7496 31.2504C80.4715 28.9724 77.4858 27.8333 74.5 27.8333M74.5 74.5C93.83 74.5 109.5 58.83 109.5 39.5C109.5 20.17 93.83 4.5 74.5 4.5C55.17 4.5 39.5 20.17 39.5 39.5C39.5 41.0965 39.6069 42.668 39.8139 44.2077C40.1544 46.7402 40.3246 48.0065 40.21 48.8076C40.0906 49.6422 39.9387 50.0919 39.5273 50.8277C39.1325 51.5342 38.4366 52.23 37.0449 53.6217L7.23367 83.433C6.22479 84.4419 5.72034 84.9463 5.3596 85.535C5.03976 86.0569 4.80407 86.6259 4.66118 87.2211C4.5 87.8925 4.5 88.6059 4.5 90.0327V100.167C4.5 103.434 4.5 105.067 5.1358 106.315C5.69506 107.413 6.58744 108.305 7.68506 108.864C8.93287 109.5 10.5664 109.5 13.8333 109.5H27.8333V97.8333H39.5V86.1667H51.1667L60.3783 76.9551C61.77 75.5634 62.4658 74.8675 63.1723 74.4726C63.9081 74.0613 64.3579 73.9094 65.1924 73.79C65.9935 73.6754 67.2598 73.8456 69.7923 74.1861C71.332 74.3931 72.9035 74.5 74.5 74.5Z" stroke="#26DFB3" stroke-width="8" stroke-linecap="round" stroke-linejoin="round"/>
<path d="M27.6667 5.66667V3.33333C27.6667 2.04467 28.7113 1 30 1C31.2887 1 32.3333 2.04467 32.3333 3.33333V5.66667H34.6667C35.9553 5.66667 37 6.71134 37 8C37 9.28866 35.9553 10.3333 34.6667 10.3333H32.3333V12.6667C32.3333 13.9553 31.2887 15 30 15C28.7113 15 27.6667 13.9553 27.6667 12.6667V10.3333H25.3333C24.0447 10.3333 23 9.28866 23 8C23 6.71134 24.0447 5.66667 25.3333 5.66667H27.6667Z" fill="#DDFFF5"/>
<path d="M19 21V19.5C19 18.6716 19.6716 18 20.5 18C21.3284 18 22 18.6716 22 19.5V21H23.5C24.3284 21 25 21.6716 25 22.5C25 23.3284 24.3284 24 23.5 24H22V25.5C22 26.3284 21.3284 27 20.5 27C19.6716 27 19 26.3284 19 25.5V24H17.5C16.6716 24 16 23.3284 16 22.5C16 21.6716 16.6716 21 17.5 21H19Z" fill="#DDFFF5"/>
<path d="M98 80V78.5C98 77.6716 98.6716 77 99.5 77C100.328 77 101 77.6716 101 78.5V80H102.5C103.328 80 104 80.6716 104 81.5C104 82.3284 103.328 83 102.5 83H101V84.5C101 85.3284 100.328 86 99.5 86C98.6716 86 98 85.3284 98 84.5V83H96.5C95.6716 83 95 82.3284 95 81.5C95 80.6716 95.6716 80 96.5 80H98Z" fill="#DDFFF5"/>
</svg>
