<svg width="50" height="50" viewBox="0 0 50 50" fill="none" xmlns="http://www.w3.org/2000/svg">
<rect x="0.5" y="0.5" width="49" height="49" rx="24.5" fill="white"/>
<path d="M25.2218 18.9772C26.6432 18.9533 28.0167 19.4906 29.0445 20.4726L31.9127 17.6045C30.1026 15.9045 27.7048 14.9711 25.2218 14.9999C21.4408 14.9985 17.9826 17.1304 16.2854 20.509L19.6263 23.0999C20.4141 20.6678 22.6654 19.009 25.2218 18.9772Z" fill="#636363"/>
<path d="M16.2856 20.509C14.8674 23.335 14.8674 26.6649 16.2856 29.4908L19.6264 26.9C19.2083 25.6678 19.2083 24.3321 19.6264 23.1L16.2856 20.509Z" fill="#636363"/>
<path d="M28.6082 30.0681C25.8041 31.8679 22.072 31.0539 20.2722 28.2499C20.0017 27.8284 19.7847 27.375 19.6263 26.8999L16.2854 29.4908C17.9826 32.8694 21.4408 35.0014 25.2218 34.9999C27.6561 35.0659 30.0236 34.1993 31.8399 32.5772L28.6082 30.0681Z" fill="#636363"/>
<path d="M34.6401 23.1819H25.2219V27.05H30.6037C30.3787 28.2864 29.6578 29.3769 28.6083 30.0682C28.6051 30.0703 28.6018 30.0718 28.5986 30.0739C28.6018 30.0718 28.6051 30.0703 28.6083 30.0683L31.84 32.5774L31.8401 32.5773C33.8304 30.6604 34.9141 27.9891 34.8219 25.2274C34.8225 24.5414 34.7616 23.8569 34.6401 23.1819Z" fill="#636363"/>
<rect x="0.5" y="0.5" width="49" height="49" rx="24.5" stroke="#DDDDDD"/>
</svg>
