<svg width="50" height="50" viewBox="0 0 50 50" fill="none" xmlns="http://www.w3.org/2000/svg">
<rect x="0.5" y="0.5" width="49" height="49" rx="24.5" fill="white"/>
<path d="M34 25C34 29.9706 29.9706 34 25 34C23.2289 34 21.5774 33.4884 20.185 32.605L16 34L17.395 29.815C16.5116 28.4226 16 26.7711 16 25C16 20.0294 20.0294 16 25 16C29.9706 16 34 20.0294 34 25Z" fill="#FFE600"/>
<path d="M20.185 32.605L20.7207 31.7606C20.4668 31.5996 20.154 31.5613 19.8687 31.6563L20.185 32.605ZM16 34L15.0513 33.6838C14.9315 34.0431 15.0251 34.4393 15.2929 34.7071C15.5607 34.9749 15.9569 35.0685 16.3162 34.9487L16 34ZM17.395 29.815L18.3437 30.1313C18.4387 29.846 18.4004 29.5332 18.2394 29.2793L17.395 29.815ZM25 35C30.5228 35 35 30.5228 35 25H33C33 29.4183 29.4183 33 25 33V35ZM19.6492 33.4494C21.1971 34.4315 23.0337 35 25 35V33C23.4242 33 21.9576 32.5454 20.7207 31.7606L19.6492 33.4494ZM19.8687 31.6563L15.6838 33.0513L16.3162 34.9487L20.5012 33.5537L19.8687 31.6563ZM16.9487 34.3162L18.3437 30.1313L16.4463 29.4988L15.0513 33.6838L16.9487 34.3162ZM15 25C15 26.9663 15.5685 28.8029 16.5506 30.3508L18.2394 29.2793C17.4546 28.0424 17 26.5758 17 25H15ZM25 15C19.4772 15 15 19.4772 15 25H17C17 20.5817 20.5817 17 25 17V15ZM35 25C35 19.4772 30.5228 15 25 15V17C29.4183 17 33 20.5817 33 25H35Z" fill="#FFE600"/>
<rect x="0.5" y="0.5" width="49" height="49" rx="24.5" stroke="#DDDDDD"/>
</svg>
