<svg width="18" height="17" viewBox="0 0 18 17" fill="none" xmlns="http://www.w3.org/2000/svg">
<path fill-rule="evenodd" clip-rule="evenodd" d="M9.8375 16.25L9.80139 16.1424L9.25 14.5L11.25 11.25H15C15.6904 11.25 16.25 10.6904 16.25 10V2.5C16.25 1.80964 15.6904 1.25 15 1.25H2.5C1.80964 1.25 1.25 1.80964 1.25 2.5V10C1.25 10.6904 1.80964 11.25 2.5 11.25H8.75V12.5H2.5C1.11929 12.5 0 11.3807 0 10V2.5C0 1.11929 1.11929 0 2.5 0H15C16.3807 0 17.5 1.11929 17.5 2.5V10C17.5 11.3807 16.3807 12.5 15 12.5H11.975L9.8375 16.25ZM13.75 3.75H3.75V5H13.75V3.75ZM10 7.5H3.75V8.75H10V7.5Z" fill="#333333"/>
<path d="M8.25 11.2502L9.25 14.5002L10.25 14.0002L9.75 11.2002L8.25 11.2502Z" fill="#333333"/>
</svg>
