<svg width="18" height="16" viewBox="0 0 18 16" fill="none" xmlns="http://www.w3.org/2000/svg">
<path fill-rule="evenodd" clip-rule="evenodd" d="M12.783 1.24978C13.7022 1.249 14.5831 1.61846 15.2267 2.27478C16.5927 3.66155 16.5927 5.88801 15.2267 7.27478L8.7517 13.831L2.2767 7.27478C0.910695 5.88801 0.910695 3.66155 2.2767 2.27478C2.92071 1.61896 3.8013 1.24951 4.72045 1.24951C5.63961 1.24951 6.5202 1.61896 7.1642 2.27478L8.7517 3.89978L10.333 2.28728C10.9748 1.623 11.8593 1.24845 12.783 1.24978V1.24978ZM12.7829 1.67917e-06C11.5275 -0.00106233 10.3244 0.503569 9.44544 1.4L8.75169 2.1L8.05794 1.4C7.17791 0.50524 5.97545 0.00131094 4.72044 0.00131094C3.46543 0.00131094 2.26297 0.50524 1.38294 1.4C-0.46098 3.27708 -0.46098 6.28542 1.38294 8.1625L8.75169 15.625L16.1204 8.1625C17.9644 6.28542 17.9644 3.27708 16.1204 1.4C15.2406 0.504759 14.0381 0.000346869 12.7829 1.67917e-06Z" fill="#333333"/>
</svg>
