<svg width="46" height="20" viewBox="0 0 46 20" fill="none" xmlns="http://www.w3.org/2000/svg">
<rect x="5" y="3" width="35" height="15" rx="7.5" fill="#FF7272"/>
<path d="M12.5789 14H17.0689V12.76H14.0589V6.6H12.5789V14ZM18.0602 14H19.5402V6.6H18.0602V14ZM22.361 14H24.121L26.391 6.6H24.881L23.921 10.2C23.701 11.03 23.541 11.76 23.301 12.6H23.251C23.021 11.76 22.851 11.03 22.621 10.2L21.651 6.6H20.091L22.361 14ZM26.9524 14H31.6024V12.76H28.4324V10.79H31.0224V9.54H28.4324V7.83H31.4924V6.6H26.9524V14Z" fill="white"/>
</svg>
