<svg width="100%" viewBox="0 0 225 166" fill="none" xmlns="http://www.w3.org/2000/svg">
<mask id="path-1-outside-1_137_10634" maskUnits="userSpaceOnUse" x="104.438" y="63.179" width="126.768" height="108.383" fill="black">
<rect fill="white" x="104.438" y="63.179" width="126.768" height="108.383"/>
<path d="M175.231 153.068C182.81 151.038 190.396 149.053 197.959 146.964C203.221 145.512 207.859 142.9 211.719 139.001C217.992 132.664 219.272 124.937 217.672 116.551C216.773 111.851 215.235 107.316 213.056 103.035C209.631 96.2978 203.96 92.2865 197.005 89.7643C187.735 86.4039 178.13 84.3116 168.58 81.9857C167.183 81.6475 165.78 81.3249 164.365 81.0816C161.828 80.6446 159.482 81.8388 158.742 83.8664C157.933 86.0789 158.835 88.5787 161.289 89.7174C165.338 91.5973 169.52 93.19 173.629 94.9397C174.381 95.261 175.206 95.4486 175.824 96.0861C177.055 97.3668 176.919 98.881 175.489 99.9628C174.721 100.539 173.833 100.701 172.955 100.936C157.874 104.982 142.797 109.041 127.709 113.041C125.539 113.618 124.284 114.785 124.068 117.067C123.859 119.266 124.987 120.622 126.786 121.551C128.11 122.237 129.45 121.826 130.776 121.47C139.751 119.065 148.727 116.661 157.702 114.256C158.5 114.042 159.279 113.771 160.147 113.943C161.241 114.158 161.943 114.739 162.133 115.838C162.343 117.032 161.85 117.939 160.783 118.462C160.245 118.725 159.624 118.82 159.034 118.978C147.779 121.994 136.523 125.005 125.271 128.03C122.367 128.812 120.67 130.778 120.859 133.027C121.119 136.127 123.848 137.852 127.193 136.961C138.453 133.963 149.704 130.934 160.96 127.922C161.621 127.745 162.281 127.53 162.952 127.427C164.376 127.207 165.305 127.856 165.716 129.209C166.139 130.611 165.509 131.578 164.287 132.177C163.749 132.44 163.129 132.539 162.539 132.697C152.756 135.319 142.969 137.941 133.187 140.562C129.79 141.472 128.419 143.346 129.097 146.139C129.754 148.842 131.554 149.847 134.933 149.189C146.226 146.99 157.16 143.399 168.301 140.595C169.837 140.207 171.002 140.299 171.539 142.037C172.058 143.708 171.139 144.605 169.822 145.262C169.352 145.492 168.799 145.56 168.285 145.698C162.108 147.353 155.923 149 149.751 150.673C148.728 150.952 147.673 151.22 146.725 151.674C144.254 152.864 143.463 154.648 144.206 157.029C144.907 159.274 146.478 160.222 149.163 159.92C150.063 159.822 150.954 159.564 151.832 159.329C159.636 157.252 167.431 155.159 175.231 153.068Z"/>
</mask>
<path d="M175.231 153.068C182.81 151.038 190.396 149.053 197.959 146.964C203.221 145.512 207.859 142.9 211.719 139.001C217.992 132.664 219.272 124.937 217.672 116.551C216.773 111.851 215.235 107.316 213.056 103.035C209.631 96.2978 203.96 92.2865 197.005 89.7643C187.735 86.4039 178.13 84.3116 168.58 81.9857C167.183 81.6475 165.78 81.3249 164.365 81.0816C161.828 80.6446 159.482 81.8388 158.742 83.8664C157.933 86.0789 158.835 88.5787 161.289 89.7174C165.338 91.5973 169.52 93.19 173.629 94.9397C174.381 95.261 175.206 95.4486 175.824 96.0861C177.055 97.3668 176.919 98.881 175.489 99.9628C174.721 100.539 173.833 100.701 172.955 100.936C157.874 104.982 142.797 109.041 127.709 113.041C125.539 113.618 124.284 114.785 124.068 117.067C123.859 119.266 124.987 120.622 126.786 121.551C128.11 122.237 129.45 121.826 130.776 121.47C139.751 119.065 148.727 116.661 157.702 114.256C158.5 114.042 159.279 113.771 160.147 113.943C161.241 114.158 161.943 114.739 162.133 115.838C162.343 117.032 161.85 117.939 160.783 118.462C160.245 118.725 159.624 118.82 159.034 118.978C147.779 121.994 136.523 125.005 125.271 128.03C122.367 128.812 120.67 130.778 120.859 133.027C121.119 136.127 123.848 137.852 127.193 136.961C138.453 133.963 149.704 130.934 160.96 127.922C161.621 127.745 162.281 127.53 162.952 127.427C164.376 127.207 165.305 127.856 165.716 129.209C166.139 130.611 165.509 131.578 164.287 132.177C163.749 132.44 163.129 132.539 162.539 132.697C152.756 135.319 142.969 137.941 133.187 140.562C129.79 141.472 128.419 143.346 129.097 146.139C129.754 148.842 131.554 149.847 134.933 149.189C146.226 146.99 157.16 143.399 168.301 140.595C169.837 140.207 171.002 140.299 171.539 142.037C172.058 143.708 171.139 144.605 169.822 145.262C169.352 145.492 168.799 145.56 168.285 145.698C162.108 147.353 155.923 149 149.751 150.673C148.728 150.952 147.673 151.22 146.725 151.674C144.254 152.864 143.463 154.648 144.206 157.029C144.907 159.274 146.478 160.222 149.163 159.92C150.063 159.822 150.954 159.564 151.832 159.329C159.636 157.252 167.431 155.159 175.231 153.068Z" fill="white"/>
<path d="M175.231 153.068C182.81 151.038 190.396 149.053 197.959 146.964C203.221 145.512 207.859 142.9 211.719 139.001C217.992 132.664 219.272 124.937 217.672 116.551C216.773 111.851 215.235 107.316 213.056 103.035C209.631 96.2978 203.96 92.2865 197.005 89.7643C187.735 86.4039 178.13 84.3116 168.58 81.9857C167.183 81.6475 165.78 81.3249 164.365 81.0816C161.828 80.6446 159.482 81.8388 158.742 83.8664C157.933 86.0789 158.835 88.5787 161.289 89.7174C165.338 91.5973 169.52 93.19 173.629 94.9397C174.381 95.261 175.206 95.4486 175.824 96.0861C177.055 97.3668 176.919 98.881 175.489 99.9628C174.721 100.539 173.833 100.701 172.955 100.936C157.874 104.982 142.797 109.041 127.709 113.041C125.539 113.618 124.284 114.785 124.068 117.067C123.859 119.266 124.987 120.622 126.786 121.551C128.11 122.237 129.45 121.826 130.776 121.47C139.751 119.065 148.727 116.661 157.702 114.256C158.5 114.042 159.279 113.771 160.147 113.943C161.241 114.158 161.943 114.739 162.133 115.838C162.343 117.032 161.85 117.939 160.783 118.462C160.245 118.725 159.624 118.82 159.034 118.978C147.779 121.994 136.523 125.005 125.271 128.03C122.367 128.812 120.67 130.778 120.859 133.027C121.119 136.127 123.848 137.852 127.193 136.961C138.453 133.963 149.704 130.934 160.96 127.922C161.621 127.745 162.281 127.53 162.952 127.427C164.376 127.207 165.305 127.856 165.716 129.209C166.139 130.611 165.509 131.578 164.287 132.177C163.749 132.44 163.129 132.539 162.539 132.697C152.756 135.319 142.969 137.941 133.187 140.562C129.79 141.472 128.419 143.346 129.097 146.139C129.754 148.842 131.554 149.847 134.933 149.189C146.226 146.99 157.16 143.399 168.301 140.595C169.837 140.207 171.002 140.299 171.539 142.037C172.058 143.708 171.139 144.605 169.822 145.262C169.352 145.492 168.799 145.56 168.285 145.698C162.108 147.353 155.923 149 149.751 150.673C148.728 150.952 147.673 151.22 146.725 151.674C144.254 152.864 143.463 154.648 144.206 157.029C144.907 159.274 146.478 160.222 149.163 159.92C150.063 159.822 150.954 159.564 151.832 159.329C159.636 157.252 167.431 155.159 175.231 153.068Z" stroke="#26DFB3" stroke-width="10" mask="url(#path-1-outside-1_137_10634)"/>
<mask id="path-2-outside-2_137_10634" maskUnits="userSpaceOnUse" x="-6.11682" y="-5.29939" width="126.768" height="108.383" fill="black">
<rect fill="white" x="-6.11682" y="-5.29939" width="126.768" height="108.383"/>
<path d="M49.858 13.1942C42.2794 15.2249 34.6933 17.2101 27.1301 19.2984C21.8682 20.7511 17.2303 23.3623 13.3702 27.2618C7.0976 33.599 5.81723 41.326 7.41766 49.7112C8.31604 54.4121 9.85417 58.9463 12.0329 63.2281C15.4587 69.9649 21.1296 73.9762 28.084 76.4984C37.3543 79.8588 46.9597 81.9511 56.5089 84.277C57.9066 84.6152 59.3096 84.9378 60.7246 85.1811C63.2609 85.6181 65.6073 84.4239 66.3473 82.3963C67.1566 80.1838 66.2539 77.684 63.8005 76.5453C59.7511 74.6654 55.5695 73.0727 51.4599 71.323C50.7084 71.0017 49.8835 70.8141 49.2659 70.1766C48.0339 68.8959 48.17 67.3817 49.6007 66.2999C50.3683 65.7236 51.2565 65.5616 52.1345 65.3263C67.2152 61.2807 82.2923 57.2218 97.3803 53.2218C99.55 52.6451 100.806 51.4772 101.021 49.1957C101.23 46.9967 100.102 45.6408 98.3035 44.7115C96.979 44.0258 95.6396 44.4369 94.3137 44.7922C85.3382 47.1972 76.3627 49.6022 67.3872 52.0071C66.589 52.221 65.8107 52.4913 64.9425 52.3201C63.8487 52.1048 63.1463 51.5232 62.9564 50.4242C62.7459 49.231 63.2397 48.3242 64.3066 47.8007C64.8446 47.5378 65.4655 47.4427 66.0553 47.2846C77.3101 44.2689 88.5661 41.2576 99.8186 38.233C102.722 37.4503 104.42 35.4845 104.23 33.2354C103.97 30.1358 101.241 28.4106 97.8961 29.3021C86.6365 32.3001 75.3852 35.3291 64.1292 38.3404C63.4685 38.5174 62.8084 38.7323 62.1375 38.8361C60.7135 39.0561 59.7839 38.4071 59.3737 37.0536C58.9504 35.6512 59.5801 34.6843 60.8029 34.0858C61.3408 33.8229 61.9605 33.7233 62.5503 33.5653C72.3329 30.9441 82.1199 28.3216 91.9024 25.7004C95.2993 24.7902 96.6699 22.9167 95.9928 20.1237C95.335 17.4205 93.5353 16.4155 90.1565 17.0738C78.8635 19.273 67.929 22.8633 56.7887 25.6678C55.2528 26.0556 54.0876 25.9639 53.5507 24.2262C53.0316 22.5549 53.9508 21.6577 55.2673 21.0008C55.7378 20.7702 56.2901 20.703 56.8045 20.5652C62.9818 18.91 69.1659 17.2624 75.3385 15.5895C76.3617 15.3106 77.4162 15.0423 78.3641 14.5887C80.8353 13.3991 81.6261 11.6145 80.8835 9.23338C80.1822 6.98851 78.6118 6.04087 75.9263 6.34229C75.026 6.441 74.1349 6.69875 73.2569 6.93402C65.453 9.01081 57.6583 11.1042 49.858 13.1942Z"/>
</mask>
<path d="M49.858 13.1942C42.2794 15.2249 34.6933 17.2101 27.1301 19.2984C21.8682 20.7511 17.2303 23.3623 13.3702 27.2618C7.0976 33.599 5.81723 41.326 7.41766 49.7112C8.31604 54.4121 9.85417 58.9463 12.0329 63.2281C15.4587 69.9649 21.1296 73.9762 28.084 76.4984C37.3543 79.8588 46.9597 81.9511 56.5089 84.277C57.9066 84.6152 59.3096 84.9378 60.7246 85.1811C63.2609 85.6181 65.6073 84.4239 66.3473 82.3963C67.1566 80.1838 66.2539 77.684 63.8005 76.5453C59.7511 74.6654 55.5695 73.0727 51.4599 71.323C50.7084 71.0017 49.8835 70.8141 49.2659 70.1766C48.0339 68.8959 48.17 67.3817 49.6007 66.2999C50.3683 65.7236 51.2565 65.5616 52.1345 65.3263C67.2152 61.2807 82.2923 57.2218 97.3803 53.2218C99.55 52.6451 100.806 51.4772 101.021 49.1957C101.23 46.9967 100.102 45.6408 98.3035 44.7115C96.979 44.0258 95.6396 44.4369 94.3137 44.7922C85.3382 47.1972 76.3627 49.6022 67.3872 52.0071C66.589 52.221 65.8107 52.4913 64.9425 52.3201C63.8487 52.1048 63.1463 51.5232 62.9564 50.4242C62.7459 49.231 63.2397 48.3242 64.3066 47.8007C64.8446 47.5378 65.4655 47.4427 66.0553 47.2846C77.3101 44.2689 88.5661 41.2576 99.8186 38.233C102.722 37.4503 104.42 35.4845 104.23 33.2354C103.97 30.1358 101.241 28.4106 97.8961 29.3021C86.6365 32.3001 75.3852 35.3291 64.1292 38.3404C63.4685 38.5174 62.8084 38.7323 62.1375 38.8361C60.7135 39.0561 59.7839 38.4071 59.3737 37.0536C58.9504 35.6512 59.5801 34.6843 60.8029 34.0858C61.3408 33.8229 61.9605 33.7233 62.5503 33.5653C72.3329 30.9441 82.1199 28.3216 91.9024 25.7004C95.2993 24.7902 96.6699 22.9167 95.9928 20.1237C95.335 17.4205 93.5353 16.4155 90.1565 17.0738C78.8635 19.273 67.929 22.8633 56.7887 25.6678C55.2528 26.0556 54.0876 25.9639 53.5507 24.2262C53.0316 22.5549 53.9508 21.6577 55.2673 21.0008C55.7378 20.7702 56.2901 20.703 56.8045 20.5652C62.9818 18.91 69.1659 17.2624 75.3385 15.5895C76.3617 15.3106 77.4162 15.0423 78.3641 14.5887C80.8353 13.3991 81.6261 11.6145 80.8835 9.23338C80.1822 6.98851 78.6118 6.04087 75.9263 6.34229C75.026 6.441 74.1349 6.69875 73.2569 6.93402C65.453 9.01081 57.6583 11.1042 49.858 13.1942Z" fill="white"/>
<path d="M49.858 13.1942C42.2794 15.2249 34.6933 17.2101 27.1301 19.2984C21.8682 20.7511 17.2303 23.3623 13.3702 27.2618C7.0976 33.599 5.81723 41.326 7.41766 49.7112C8.31604 54.4121 9.85417 58.9463 12.0329 63.2281C15.4587 69.9649 21.1296 73.9762 28.084 76.4984C37.3543 79.8588 46.9597 81.9511 56.5089 84.277C57.9066 84.6152 59.3096 84.9378 60.7246 85.1811C63.2609 85.6181 65.6073 84.4239 66.3473 82.3963C67.1566 80.1838 66.2539 77.684 63.8005 76.5453C59.7511 74.6654 55.5695 73.0727 51.4599 71.323C50.7084 71.0017 49.8835 70.8141 49.2659 70.1766C48.0339 68.8959 48.17 67.3817 49.6007 66.2999C50.3683 65.7236 51.2565 65.5616 52.1345 65.3263C67.2152 61.2807 82.2923 57.2218 97.3803 53.2218C99.55 52.6451 100.806 51.4772 101.021 49.1957C101.23 46.9967 100.102 45.6408 98.3035 44.7115C96.979 44.0258 95.6396 44.4369 94.3137 44.7922C85.3382 47.1972 76.3627 49.6022 67.3872 52.0071C66.589 52.221 65.8107 52.4913 64.9425 52.3201C63.8487 52.1048 63.1463 51.5232 62.9564 50.4242C62.7459 49.231 63.2397 48.3242 64.3066 47.8007C64.8446 47.5378 65.4655 47.4427 66.0553 47.2846C77.3101 44.2689 88.5661 41.2576 99.8186 38.233C102.722 37.4503 104.42 35.4845 104.23 33.2354C103.97 30.1358 101.241 28.4106 97.8961 29.3021C86.6365 32.3001 75.3852 35.3291 64.1292 38.3404C63.4685 38.5174 62.8084 38.7323 62.1375 38.8361C60.7135 39.0561 59.7839 38.4071 59.3737 37.0536C58.9504 35.6512 59.5801 34.6843 60.8029 34.0858C61.3408 33.8229 61.9605 33.7233 62.5503 33.5653C72.3329 30.9441 82.1199 28.3216 91.9024 25.7004C95.2993 24.7902 96.6699 22.9167 95.9928 20.1237C95.335 17.4205 93.5353 16.4155 90.1565 17.0738C78.8635 19.273 67.929 22.8633 56.7887 25.6678C55.2528 26.0556 54.0876 25.9639 53.5507 24.2262C53.0316 22.5549 53.9508 21.6577 55.2673 21.0008C55.7378 20.7702 56.2901 20.703 56.8045 20.5652C62.9818 18.91 69.1659 17.2624 75.3385 15.5895C76.3617 15.3106 77.4162 15.0423 78.3641 14.5887C80.8353 13.3991 81.6261 11.6145 80.8835 9.23338C80.1822 6.98851 78.6118 6.04087 75.9263 6.34229C75.026 6.441 74.1349 6.69875 73.2569 6.93402C65.453 9.01081 57.6583 11.1042 49.858 13.1942Z" stroke="#26DFB3" stroke-width="10" mask="url(#path-2-outside-2_137_10634)"/>
<path d="M107.715 99.4215V72.0615H102.735V99.4215H107.715ZM101.205 97.2615V93.2415H90.1945V86.2815H99.7345V82.3815H90.1945V76.2315H99.9445V72.2115H87.2245C85.8145 72.2115 85.2145 72.8115 85.2145 74.2215V97.2615H101.205ZM136.402 85.4715V81.7515H110.902V85.4715H136.402ZM135.262 99.5115V96.0615H117.322V94.7415H132.712C134.512 94.7415 134.962 94.2915 134.962 92.4915V86.9415H112.282V90.3315H129.982V91.6515H112.342V99.5115H135.262ZM134.692 80.7915L135.412 73.7715C135.502 72.7815 134.932 72.1215 133.882 72.1215H112.192V75.8415H117.322C117.922 75.8415 118.252 76.0815 118.162 76.6815L117.502 80.7915H122.482L123.292 75.8415H129.322C129.922 75.8415 130.222 76.0815 130.162 76.6815L129.712 80.7915H134.692Z" fill="#26DFB3"/>
</svg>
