<svg width="16" height="16" viewBox="0 0 16 16" fill="none" xmlns="http://www.w3.org/2000/svg">
<path d="M9.66666 6.33301L9.66666 12.1663" stroke="#333333" stroke-linecap="round" stroke-linejoin="round"/>
<path d="M6.33334 6.33301L6.33334 12.1663" stroke="#333333" stroke-linecap="round" stroke-linejoin="round"/>
<path d="M3 3V2.5C2.72386 2.5 2.5 2.72386 2.5 3H3ZM13 3H13.5C13.5 2.72386 13.2761 2.5 13 2.5V3ZM3 3.5H13V2.5H3V3.5ZM12.5 3V14.6667H13.5V3H12.5ZM12.1667 15H3.83333V16H12.1667V15ZM3.5 14.6667V3H2.5V14.6667H3.5ZM3.83333 15C3.64924 15 3.5 14.8508 3.5 14.6667H2.5C2.5 15.403 3.09695 16 3.83333 16V15ZM12.5 14.6667C12.5 14.8508 12.3508 15 12.1667 15V16C12.903 16 13.5 15.403 13.5 14.6667H12.5Z" fill="#333333"/>
<path d="M1.33334 3H14.6667" stroke="#333333" stroke-linecap="round" stroke-linejoin="round"/>
<path d="M11.3333 3V3.5C11.6095 3.5 11.8333 3.27614 11.8333 3H11.3333ZM4.66666 3H4.16666C4.16666 3.27614 4.39051 3.5 4.66666 3.5V3ZM5.49999 1H10.5V0H5.49999V1ZM10.8333 1.33333V3H11.8333V1.33333H10.8333ZM11.3333 2.5H4.66666V3.5H11.3333V2.5ZM5.16666 3V1.33333H4.16666V3H5.16666ZM10.5 1C10.6841 1 10.8333 1.14924 10.8333 1.33333H11.8333C11.8333 0.596954 11.2364 0 10.5 0V1ZM5.49999 0C4.76361 0 4.16666 0.596954 4.16666 1.33333H5.16666C5.16666 1.14924 5.31589 1 5.49999 1V0Z" fill="#333333"/>
</svg>
