<svg width="24" height="24" viewBox="0 0 24 24" fill="none" xmlns="http://www.w3.org/2000/svg">
<path fill-rule="evenodd" clip-rule="evenodd" d="M2.3999 18.48C2.3999 18.0824 2.72226 17.76 3.1199 17.76H20.8799C21.2775 17.76 21.5999 18.0824 21.5999 18.48C21.5999 18.8777 21.2775 19.2 20.8799 19.2H3.1199C2.72226 19.2 2.3999 18.8777 2.3999 18.48ZM2.3999 14.16C2.3999 13.7624 2.72226 13.44 3.1199 13.44H20.8799C21.2775 13.44 21.5999 13.7624 21.5999 14.16C21.5999 14.5577 21.2775 14.88 20.8799 14.88H3.1199C2.72226 14.88 2.3999 14.5577 2.3999 14.16ZM2.3999 9.83958C2.3999 9.44194 2.72226 9.11958 3.1199 9.11958H20.8799C21.2775 9.11958 21.5999 9.44194 21.5999 9.83958C21.5999 10.2372 21.2775 10.5596 20.8799 10.5596H3.1199C2.72226 10.5596 2.3999 10.2372 2.3999 9.83958ZM2.3999 5.52005C2.3999 5.1224 2.72226 4.80005 3.1199 4.80005H20.8799C21.2775 4.80005 21.5999 5.1224 21.5999 5.52005C21.5999 5.91769 21.2775 6.24005 20.8799 6.24005H3.1199C2.72226 6.24005 2.3999 5.91769 2.3999 5.52005Z" fill="#333333"/>
</svg>
