<svg width="51" height="30" viewBox="0 0 51 30" fill="none" xmlns="http://www.w3.org/2000/svg">
<mask id="path-1-outside-1_77_10688" maskUnits="userSpaceOnUse" x="-1.73663" y="0.449279" width="36.1554" height="31.2056" fill="black">
<rect fill="white" x="-1.73663" y="0.449279" width="36.1554" height="31.2056"/>
<path d="M14.3288 6.35723C12.2616 6.91116 10.1923 7.45267 8.12919 8.02231C6.69384 8.41858 5.42873 9.13085 4.37577 10.1945C2.66475 11.9232 2.31549 14.031 2.75206 16.3183C2.99711 17.6006 3.41668 18.8374 4.01098 20.0054C4.94548 21.843 6.49237 22.9372 8.38939 23.6252C10.9181 24.5419 13.5383 25.1126 16.1431 25.7471C16.5243 25.8393 16.907 25.9273 17.293 25.9937C17.9849 26.1129 18.6249 25.7871 18.8268 25.234C19.0475 24.6305 18.8013 23.9486 18.1321 23.638C17.0275 23.1252 15.8868 22.6908 14.7658 22.2135C14.5608 22.1258 14.3358 22.0747 14.1673 21.9008C13.8313 21.5514 13.8684 21.1384 14.2587 20.8433C14.4681 20.6861 14.7103 20.6419 14.9498 20.5777C19.0635 19.4742 23.1762 18.367 27.2919 17.2759C27.8837 17.1186 28.2262 16.8 28.2851 16.1776C28.3421 15.5778 28.0343 15.2079 27.5437 14.9544C27.1824 14.7674 26.8171 14.8796 26.4554 14.9765C24.0071 15.6325 21.5588 16.2885 19.1104 16.9445C18.8927 17.0029 18.6804 17.0766 18.4436 17.0299C18.1452 16.9712 17.9536 16.8125 17.9018 16.5128C17.8444 16.1873 17.9791 15.9399 18.2701 15.7971C18.4169 15.7254 18.5862 15.6995 18.7471 15.6563C21.8172 14.8337 24.8876 14.0123 27.957 13.1873C28.749 12.9738 29.2121 12.4375 29.1605 11.824C29.0895 10.9785 28.345 10.5079 27.4326 10.7511C24.3612 11.5689 21.2921 12.3951 18.2217 13.2166C18.0415 13.2649 17.8614 13.3235 17.6784 13.3518C17.29 13.4118 17.0364 13.2348 16.9245 12.8655C16.8091 12.483 16.9808 12.2192 17.3144 12.056C17.4611 11.9843 17.6302 11.9571 17.791 11.914C20.4595 11.199 23.1292 10.4837 25.7977 9.76864C26.7242 9.52037 27.0981 9.00932 26.9134 8.24744C26.734 7.51007 26.2431 7.23593 25.3214 7.41549C22.2409 8.01538 19.2582 8.99475 16.2194 9.75975C15.8004 9.86553 15.4826 9.84052 15.3361 9.36651C15.1945 8.91063 15.4453 8.66587 15.8044 8.4867C15.9327 8.42379 16.0834 8.40546 16.2237 8.36786C17.9087 7.91635 19.5956 7.46695 21.2794 7.01061C21.5585 6.93453 21.8461 6.86134 22.1047 6.73762C22.7788 6.41313 22.9945 5.92631 22.7919 5.2768C22.6006 4.66444 22.1722 4.40595 21.4397 4.48817C21.1941 4.5151 20.9511 4.5854 20.7116 4.64958C18.5828 5.21608 16.4566 5.7871 14.3288 6.35723Z"/>
</mask>
<path d="M14.3288 6.35723C12.2616 6.91116 10.1923 7.45267 8.12919 8.02231C6.69384 8.41858 5.42873 9.13085 4.37577 10.1945C2.66475 11.9232 2.31549 14.031 2.75206 16.3183C2.99711 17.6006 3.41668 18.8374 4.01098 20.0054C4.94548 21.843 6.49237 22.9372 8.38939 23.6252C10.9181 24.5419 13.5383 25.1126 16.1431 25.7471C16.5243 25.8393 16.907 25.9273 17.293 25.9937C17.9849 26.1129 18.6249 25.7871 18.8268 25.234C19.0475 24.6305 18.8013 23.9486 18.1321 23.638C17.0275 23.1252 15.8868 22.6908 14.7658 22.2135C14.5608 22.1258 14.3358 22.0747 14.1673 21.9008C13.8313 21.5514 13.8684 21.1384 14.2587 20.8433C14.4681 20.6861 14.7103 20.6419 14.9498 20.5777C19.0635 19.4742 23.1762 18.367 27.2919 17.2759C27.8837 17.1186 28.2262 16.8 28.2851 16.1776C28.3421 15.5778 28.0343 15.2079 27.5437 14.9544C27.1824 14.7674 26.8171 14.8796 26.4554 14.9765C24.0071 15.6325 21.5588 16.2885 19.1104 16.9445C18.8927 17.0029 18.6804 17.0766 18.4436 17.0299C18.1452 16.9712 17.9536 16.8125 17.9018 16.5128C17.8444 16.1873 17.9791 15.9399 18.2701 15.7971C18.4169 15.7254 18.5862 15.6995 18.7471 15.6563C21.8172 14.8337 24.8876 14.0123 27.957 13.1873C28.749 12.9738 29.2121 12.4375 29.1605 11.824C29.0895 10.9785 28.345 10.5079 27.4326 10.7511C24.3612 11.5689 21.2921 12.3951 18.2217 13.2166C18.0415 13.2649 17.8614 13.3235 17.6784 13.3518C17.29 13.4118 17.0364 13.2348 16.9245 12.8655C16.8091 12.483 16.9808 12.2192 17.3144 12.056C17.4611 11.9843 17.6302 11.9571 17.791 11.914C20.4595 11.199 23.1292 10.4837 25.7977 9.76864C26.7242 9.52037 27.0981 9.00932 26.9134 8.24744C26.734 7.51007 26.2431 7.23593 25.3214 7.41549C22.2409 8.01538 19.2582 8.99475 16.2194 9.75975C15.8004 9.86553 15.4826 9.84052 15.3361 9.36651C15.1945 8.91063 15.4453 8.66587 15.8044 8.4867C15.9327 8.42379 16.0834 8.40546 16.2237 8.36786C17.9087 7.91635 19.5956 7.46695 21.2794 7.01061C21.5585 6.93453 21.8461 6.86134 22.1047 6.73762C22.7788 6.41313 22.9945 5.92631 22.7919 5.2768C22.6006 4.66444 22.1722 4.40595 21.4397 4.48817C21.1941 4.5151 20.9511 4.5854 20.7116 4.64958C18.5828 5.21608 16.4566 5.7871 14.3288 6.35723Z" fill="white"/>
<path d="M14.3288 6.35723C12.2616 6.91116 10.1923 7.45267 8.12919 8.02231C6.69384 8.41858 5.42873 9.13085 4.37577 10.1945C2.66475 11.9232 2.31549 14.031 2.75206 16.3183C2.99711 17.6006 3.41668 18.8374 4.01098 20.0054C4.94548 21.843 6.49237 22.9372 8.38939 23.6252C10.9181 24.5419 13.5383 25.1126 16.1431 25.7471C16.5243 25.8393 16.907 25.9273 17.293 25.9937C17.9849 26.1129 18.6249 25.7871 18.8268 25.234C19.0475 24.6305 18.8013 23.9486 18.1321 23.638C17.0275 23.1252 15.8868 22.6908 14.7658 22.2135C14.5608 22.1258 14.3358 22.0747 14.1673 21.9008C13.8313 21.5514 13.8684 21.1384 14.2587 20.8433C14.4681 20.6861 14.7103 20.6419 14.9498 20.5777C19.0635 19.4742 23.1762 18.367 27.2919 17.2759C27.8837 17.1186 28.2262 16.8 28.2851 16.1776C28.3421 15.5778 28.0343 15.2079 27.5437 14.9544C27.1824 14.7674 26.8171 14.8796 26.4554 14.9765C24.0071 15.6325 21.5588 16.2885 19.1104 16.9445C18.8927 17.0029 18.6804 17.0766 18.4436 17.0299C18.1452 16.9712 17.9536 16.8125 17.9018 16.5128C17.8444 16.1873 17.9791 15.9399 18.2701 15.7971C18.4169 15.7254 18.5862 15.6995 18.7471 15.6563C21.8172 14.8337 24.8876 14.0123 27.957 13.1873C28.749 12.9738 29.2121 12.4375 29.1605 11.824C29.0895 10.9785 28.345 10.5079 27.4326 10.7511C24.3612 11.5689 21.2921 12.3951 18.2217 13.2166C18.0415 13.2649 17.8614 13.3235 17.6784 13.3518C17.29 13.4118 17.0364 13.2348 16.9245 12.8655C16.8091 12.483 16.9808 12.2192 17.3144 12.056C17.4611 11.9843 17.6302 11.9571 17.791 11.914C20.4595 11.199 23.1292 10.4837 25.7977 9.76864C26.7242 9.52037 27.0981 9.00932 26.9134 8.24744C26.734 7.51007 26.2431 7.23593 25.3214 7.41549C22.2409 8.01538 19.2582 8.99475 16.2194 9.75975C15.8004 9.86553 15.4826 9.84052 15.3361 9.36651C15.1945 8.91063 15.4453 8.66587 15.8044 8.4867C15.9327 8.42379 16.0834 8.40546 16.2237 8.36786C17.9087 7.91635 19.5956 7.46695 21.2794 7.01061C21.5585 6.93453 21.8461 6.86134 22.1047 6.73762C22.7788 6.41313 22.9945 5.92631 22.7919 5.2768C22.6006 4.66444 22.1722 4.40595 21.4397 4.48817C21.1941 4.5151 20.9511 4.5854 20.7116 4.64958C18.5828 5.21608 16.4566 5.7871 14.3288 6.35723Z" stroke="#26DFB3" stroke-width="4" mask="url(#path-1-outside-1_77_10688)"/>
<mask id="path-2-outside-2_77_10688" maskUnits="userSpaceOnUse" x="16.5808" y="-2.51878" width="36.1554" height="31.2056" fill="black">
<rect fill="white" x="16.5808" y="-2.51878" width="36.1554" height="31.2056"/>
<path d="M36.6707 22.7789C38.7379 22.2249 40.8073 21.6834 42.8703 21.1138C44.3057 20.7175 45.5708 20.0053 46.6237 18.9416C48.3348 17.2129 48.684 15.1052 48.2475 12.8178C48.0024 11.5355 47.5828 10.2987 46.9885 9.13073C46.054 7.29308 44.5071 6.19889 42.6101 5.51088C40.0814 4.59423 37.4612 4.02351 34.8564 3.38906C34.4752 3.2968 34.0925 3.20881 33.7065 3.14245C33.0146 3.02324 32.3746 3.34898 32.1727 3.90207C31.952 4.50559 32.1982 5.18747 32.8675 5.49808C33.972 6.01088 35.1127 6.44533 36.2337 6.92263C36.4387 7.01027 36.6637 7.06144 36.8322 7.23534C37.1682 7.58468 37.1311 7.99772 36.7408 8.29282C36.5315 8.45003 36.2892 8.49421 36.0497 8.55838C31.936 9.66193 27.8233 10.7691 23.7076 11.8602C23.1158 12.0175 22.7733 12.3361 22.7145 12.9585C22.6574 13.5583 22.9652 13.9282 23.4558 14.1817C23.8171 14.3687 24.1824 14.2565 24.5441 14.1596C26.9924 13.5036 29.4408 12.8476 31.8891 12.1916C32.1068 12.1332 32.3191 12.0595 32.5559 12.1062C32.8543 12.1649 33.0459 12.3236 33.0977 12.6233C33.1551 12.9488 33.0204 13.1962 32.7294 13.339C32.5826 13.4107 32.4133 13.4367 32.2524 13.4798C29.1823 14.3024 26.1119 15.1238 23.0425 15.9488C22.2505 16.1623 21.7874 16.6986 21.839 17.3121C21.91 18.1576 22.6545 18.6282 23.5669 18.385C26.6383 17.5672 29.7074 16.741 32.7778 15.9196C32.958 15.8713 33.1381 15.8126 33.3211 15.7843C33.7095 15.7243 33.9631 15.9014 34.075 16.2706C34.1904 16.6531 34.0187 16.9169 33.6851 17.0801C33.5384 17.1518 33.3694 17.179 33.2085 17.2221C30.54 17.9371 27.8703 18.6525 25.2019 19.3675C24.2753 19.6157 23.9014 20.1268 24.0861 20.8887C24.2655 21.626 24.7564 21.9002 25.6781 21.7206C28.7586 21.1207 31.7413 20.1414 34.7801 19.3764C35.1991 19.2706 35.5169 19.2956 35.6634 19.7696C35.805 20.2255 35.5542 20.4702 35.1951 20.6494C35.0668 20.7123 34.9161 20.7307 34.7758 20.7683C33.0908 21.2198 31.4039 21.6692 29.7201 22.1255C29.441 22.2016 29.1534 22.2748 28.8948 22.3985C28.2207 22.723 28.005 23.2098 28.2076 23.8593C28.3989 24.4717 28.8273 24.7302 29.5598 24.6479C29.8054 24.621 30.0484 24.5507 30.288 24.4865C32.4167 23.92 34.5429 23.349 36.6707 22.7789Z"/>
</mask>
<path d="M36.6707 22.7789C38.7379 22.2249 40.8073 21.6834 42.8703 21.1138C44.3057 20.7175 45.5708 20.0053 46.6237 18.9416C48.3348 17.2129 48.684 15.1052 48.2475 12.8178C48.0024 11.5355 47.5828 10.2987 46.9885 9.13073C46.054 7.29308 44.5071 6.19889 42.6101 5.51088C40.0814 4.59423 37.4612 4.02351 34.8564 3.38906C34.4752 3.2968 34.0925 3.20881 33.7065 3.14245C33.0146 3.02324 32.3746 3.34898 32.1727 3.90207C31.952 4.50559 32.1982 5.18747 32.8675 5.49808C33.972 6.01088 35.1127 6.44533 36.2337 6.92263C36.4387 7.01027 36.6637 7.06144 36.8322 7.23534C37.1682 7.58468 37.1311 7.99772 36.7408 8.29282C36.5315 8.45003 36.2892 8.49421 36.0497 8.55838C31.936 9.66193 27.8233 10.7691 23.7076 11.8602C23.1158 12.0175 22.7733 12.3361 22.7145 12.9585C22.6574 13.5583 22.9652 13.9282 23.4558 14.1817C23.8171 14.3687 24.1824 14.2565 24.5441 14.1596C26.9924 13.5036 29.4408 12.8476 31.8891 12.1916C32.1068 12.1332 32.3191 12.0595 32.5559 12.1062C32.8543 12.1649 33.0459 12.3236 33.0977 12.6233C33.1551 12.9488 33.0204 13.1962 32.7294 13.339C32.5826 13.4107 32.4133 13.4367 32.2524 13.4798C29.1823 14.3024 26.1119 15.1238 23.0425 15.9488C22.2505 16.1623 21.7874 16.6986 21.839 17.3121C21.91 18.1576 22.6545 18.6282 23.5669 18.385C26.6383 17.5672 29.7074 16.741 32.7778 15.9196C32.958 15.8713 33.1381 15.8126 33.3211 15.7843C33.7095 15.7243 33.9631 15.9014 34.075 16.2706C34.1904 16.6531 34.0187 16.9169 33.6851 17.0801C33.5384 17.1518 33.3694 17.179 33.2085 17.2221C30.54 17.9371 27.8703 18.6525 25.2019 19.3675C24.2753 19.6157 23.9014 20.1268 24.0861 20.8887C24.2655 21.626 24.7564 21.9002 25.6781 21.7206C28.7586 21.1207 31.7413 20.1414 34.7801 19.3764C35.1991 19.2706 35.5169 19.2956 35.6634 19.7696C35.805 20.2255 35.5542 20.4702 35.1951 20.6494C35.0668 20.7123 34.9161 20.7307 34.7758 20.7683C33.0908 21.2198 31.4039 21.6692 29.7201 22.1255C29.441 22.2016 29.1534 22.2748 28.8948 22.3985C28.2207 22.723 28.005 23.2098 28.2076 23.8593C28.3989 24.4717 28.8273 24.7302 29.5598 24.6479C29.8054 24.621 30.0484 24.5507 30.288 24.4865C32.4167 23.92 34.5429 23.349 36.6707 22.7789Z" fill="white"/>
<path d="M36.6707 22.7789C38.7379 22.2249 40.8073 21.6834 42.8703 21.1138C44.3057 20.7175 45.5708 20.0053 46.6237 18.9416C48.3348 17.2129 48.684 15.1052 48.2475 12.8178C48.0024 11.5355 47.5828 10.2987 46.9885 9.13073C46.054 7.29308 44.5071 6.19889 42.6101 5.51088C40.0814 4.59423 37.4612 4.02351 34.8564 3.38906C34.4752 3.2968 34.0925 3.20881 33.7065 3.14245C33.0146 3.02324 32.3746 3.34898 32.1727 3.90207C31.952 4.50559 32.1982 5.18747 32.8675 5.49808C33.972 6.01088 35.1127 6.44533 36.2337 6.92263C36.4387 7.01027 36.6637 7.06144 36.8322 7.23534C37.1682 7.58468 37.1311 7.99772 36.7408 8.29282C36.5315 8.45003 36.2892 8.49421 36.0497 8.55838C31.936 9.66193 27.8233 10.7691 23.7076 11.8602C23.1158 12.0175 22.7733 12.3361 22.7145 12.9585C22.6574 13.5583 22.9652 13.9282 23.4558 14.1817C23.8171 14.3687 24.1824 14.2565 24.5441 14.1596C26.9924 13.5036 29.4408 12.8476 31.8891 12.1916C32.1068 12.1332 32.3191 12.0595 32.5559 12.1062C32.8543 12.1649 33.0459 12.3236 33.0977 12.6233C33.1551 12.9488 33.0204 13.1962 32.7294 13.339C32.5826 13.4107 32.4133 13.4367 32.2524 13.4798C29.1823 14.3024 26.1119 15.1238 23.0425 15.9488C22.2505 16.1623 21.7874 16.6986 21.839 17.3121C21.91 18.1576 22.6545 18.6282 23.5669 18.385C26.6383 17.5672 29.7074 16.741 32.7778 15.9196C32.958 15.8713 33.1381 15.8126 33.3211 15.7843C33.7095 15.7243 33.9631 15.9014 34.075 16.2706C34.1904 16.6531 34.0187 16.9169 33.6851 17.0801C33.5384 17.1518 33.3694 17.179 33.2085 17.2221C30.54 17.9371 27.8703 18.6525 25.2019 19.3675C24.2753 19.6157 23.9014 20.1268 24.0861 20.8887C24.2655 21.626 24.7564 21.9002 25.6781 21.7206C28.7586 21.1207 31.7413 20.1414 34.7801 19.3764C35.1991 19.2706 35.5169 19.2956 35.6634 19.7696C35.805 20.2255 35.5542 20.4702 35.1951 20.6494C35.0668 20.7123 34.9161 20.7307 34.7758 20.7683C33.0908 21.2198 31.4039 21.6692 29.7201 22.1255C29.441 22.2016 29.1534 22.2748 28.8948 22.3985C28.2207 22.723 28.005 23.2098 28.2076 23.8593C28.3989 24.4717 28.8273 24.7302 29.5598 24.6479C29.8054 24.621 30.0484 24.5507 30.288 24.4865C32.4167 23.92 34.5429 23.349 36.6707 22.7789Z" stroke="#26DFB3" stroke-width="4" mask="url(#path-2-outside-2_77_10688)"/>
</svg>