<svg width="100%" height="100%" viewBox="0 0 264 252" fill="none" xmlns="http://www.w3.org/2000/svg">
<path d="M128.15 150.663V105.062H119.85V150.663H128.15ZM117.3 147.063V140.362H98.9495V128.762H114.85V122.262H98.9495V112.012H115.2V105.312H93.9995C91.6495 105.312 90.6495 106.312 90.6495 108.662V147.063H117.3ZM175.962 127.412V121.212H133.462V127.412H175.962ZM174.062 150.813V145.063H144.162V142.863H169.812C172.812 142.863 173.562 142.112 173.562 139.112V129.862H135.762V135.512H165.262V137.712H135.862V150.813H174.062ZM173.112 119.612L174.312 107.912C174.462 106.262 173.512 105.162 171.762 105.162H135.612V111.362H144.162C145.162 111.362 145.712 111.762 145.562 112.762L144.462 119.612H152.762L154.112 111.362H164.162C165.162 111.362 165.662 111.762 165.562 112.762L164.812 119.612H173.112Z" fill="#26DFB3"/>
<mask id="path-2-outside-1_137_10636" maskUnits="userSpaceOnUse" x="122.95" y="96.7114" width="191.023" height="164.153" fill="black">
<rect fill="white" x="122.95" y="96.7114" width="191.023" height="164.153"/>
<path d="M230.087 232.724C241.638 229.629 253.2 226.604 264.728 223.421C272.747 221.207 279.816 217.227 285.7 211.284C295.26 201.625 297.211 189.848 294.772 177.068C293.403 169.903 291.058 162.992 287.738 156.466C282.516 146.199 273.873 140.085 263.274 136.241C249.145 131.119 234.505 127.93 219.951 124.385C217.82 123.87 215.682 123.378 213.525 123.007C209.66 122.341 206.083 124.161 204.956 127.252C203.722 130.624 205.098 134.434 208.837 136.169C215.009 139.034 221.382 141.462 227.646 144.129C228.791 144.618 230.049 144.904 230.99 145.876C232.868 147.828 232.66 150.136 230.48 151.785C229.31 152.663 227.956 152.91 226.618 153.268C203.633 159.434 180.653 165.621 157.657 171.717C154.35 172.596 152.437 174.376 152.108 177.853C151.789 181.205 153.509 183.272 156.25 184.688C158.269 185.733 160.31 185.106 162.331 184.565C176.011 180.899 189.691 177.234 203.371 173.568C204.587 173.243 205.773 172.83 207.097 173.092C208.764 173.42 209.834 174.306 210.124 175.981C210.444 177.8 209.692 179.182 208.066 179.98C207.246 180.38 206.3 180.525 205.401 180.766C188.247 185.363 171.091 189.952 153.941 194.562C149.516 195.755 146.928 198.751 147.217 202.179C147.613 206.903 151.773 209.533 156.871 208.174C174.032 203.605 191.181 198.988 208.336 194.398C209.343 194.129 210.349 193.801 211.372 193.643C213.542 193.308 214.959 194.297 215.584 196.36C216.229 198.497 215.27 199.971 213.406 200.883C212.586 201.284 211.642 201.435 210.743 201.676C195.833 205.671 180.916 209.668 166.006 213.663C160.829 215.051 158.74 217.906 159.772 222.163C160.774 226.283 163.518 227.815 168.667 226.811C185.879 223.46 202.545 217.987 219.524 213.713C221.865 213.122 223.641 213.262 224.459 215.91C225.25 218.457 223.849 219.825 221.843 220.826C221.126 221.178 220.284 221.28 219.5 221.49C210.085 224.013 200.66 226.524 191.252 229.074C189.692 229.499 188.085 229.908 186.64 230.599C182.874 232.412 181.669 235.132 182.8 238.761C183.869 242.183 186.263 243.627 190.356 243.168C191.728 243.017 193.086 242.624 194.424 242.266C206.319 239.1 218.199 235.91 230.087 232.724Z"/>
</mask>
<path d="M230.087 232.724C241.638 229.629 253.2 226.604 264.728 223.421C272.747 221.207 279.816 217.227 285.7 211.284C295.26 201.625 297.211 189.848 294.772 177.068C293.403 169.903 291.058 162.992 287.738 156.466C282.516 146.199 273.873 140.085 263.274 136.241C249.145 131.119 234.505 127.93 219.951 124.385C217.82 123.87 215.682 123.378 213.525 123.007C209.66 122.341 206.083 124.161 204.956 127.252C203.722 130.624 205.098 134.434 208.837 136.169C215.009 139.034 221.382 141.462 227.646 144.129C228.791 144.618 230.049 144.904 230.99 145.876C232.868 147.828 232.66 150.136 230.48 151.785C229.31 152.663 227.956 152.91 226.618 153.268C203.633 159.434 180.653 165.621 157.657 171.717C154.35 172.596 152.437 174.376 152.108 177.853C151.789 181.205 153.509 183.272 156.25 184.688C158.269 185.733 160.31 185.106 162.331 184.565C176.011 180.899 189.691 177.234 203.371 173.568C204.587 173.243 205.773 172.83 207.097 173.092C208.764 173.42 209.834 174.306 210.124 175.981C210.444 177.8 209.692 179.182 208.066 179.98C207.246 180.38 206.3 180.525 205.401 180.766C188.247 185.363 171.091 189.952 153.941 194.562C149.516 195.755 146.928 198.751 147.217 202.179C147.613 206.903 151.773 209.533 156.871 208.174C174.032 203.605 191.181 198.988 208.336 194.398C209.343 194.129 210.349 193.801 211.372 193.643C213.542 193.308 214.959 194.297 215.584 196.36C216.229 198.497 215.27 199.971 213.406 200.883C212.586 201.284 211.642 201.435 210.743 201.676C195.833 205.671 180.916 209.668 166.006 213.663C160.829 215.051 158.74 217.906 159.772 222.163C160.774 226.283 163.518 227.815 168.667 226.811C185.879 223.46 202.545 217.987 219.524 213.713C221.865 213.122 223.641 213.262 224.459 215.91C225.25 218.457 223.849 219.825 221.843 220.826C221.126 221.178 220.284 221.28 219.5 221.49C210.085 224.013 200.66 226.524 191.252 229.074C189.692 229.499 188.085 229.908 186.64 230.599C182.874 232.412 181.669 235.132 182.8 238.761C183.869 242.183 186.263 243.627 190.356 243.168C191.728 243.017 193.086 242.624 194.424 242.266C206.319 239.1 218.199 235.91 230.087 232.724Z" fill="white"/>
<path d="M230.087 232.724C241.638 229.629 253.2 226.604 264.728 223.421C272.747 221.207 279.816 217.227 285.7 211.284C295.26 201.625 297.211 189.848 294.772 177.068C293.403 169.903 291.058 162.992 287.738 156.466C282.516 146.199 273.873 140.085 263.274 136.241C249.145 131.119 234.505 127.93 219.951 124.385C217.82 123.87 215.682 123.378 213.525 123.007C209.66 122.341 206.083 124.161 204.956 127.252C203.722 130.624 205.098 134.434 208.837 136.169C215.009 139.034 221.382 141.462 227.646 144.129C228.791 144.618 230.049 144.904 230.99 145.876C232.868 147.828 232.66 150.136 230.48 151.785C229.31 152.663 227.956 152.91 226.618 153.268C203.633 159.434 180.653 165.621 157.657 171.717C154.35 172.596 152.437 174.376 152.108 177.853C151.789 181.205 153.509 183.272 156.25 184.688C158.269 185.733 160.31 185.106 162.331 184.565C176.011 180.899 189.691 177.234 203.371 173.568C204.587 173.243 205.773 172.83 207.097 173.092C208.764 173.42 209.834 174.306 210.124 175.981C210.444 177.8 209.692 179.182 208.066 179.98C207.246 180.38 206.3 180.525 205.401 180.766C188.247 185.363 171.091 189.952 153.941 194.562C149.516 195.755 146.928 198.751 147.217 202.179C147.613 206.903 151.773 209.533 156.871 208.174C174.032 203.605 191.181 198.988 208.336 194.398C209.343 194.129 210.349 193.801 211.372 193.643C213.542 193.308 214.959 194.297 215.584 196.36C216.229 198.497 215.27 199.971 213.406 200.883C212.586 201.284 211.642 201.435 210.743 201.676C195.833 205.671 180.916 209.668 166.006 213.663C160.829 215.051 158.74 217.906 159.772 222.163C160.774 226.283 163.518 227.815 168.667 226.811C185.879 223.46 202.545 217.987 219.524 213.713C221.865 213.122 223.641 213.262 224.459 215.91C225.25 218.457 223.849 219.825 221.843 220.826C221.126 221.178 220.284 221.28 219.5 221.49C210.085 224.013 200.66 226.524 191.252 229.074C189.692 229.499 188.085 229.908 186.64 230.599C182.874 232.412 181.669 235.132 182.8 238.761C183.869 242.183 186.263 243.627 190.356 243.168C191.728 243.017 193.086 242.624 194.424 242.266C206.319 239.1 218.199 235.91 230.087 232.724Z" stroke="#26DFB3" stroke-width="14" mask="url(#path-2-outside-1_137_10636)"/>
<mask id="path-3-outside-2_137_10636" maskUnits="userSpaceOnUse" x="-44.8832" y="-8.60261" width="191.023" height="164.153" fill="black">
<rect fill="white" x="-44.8832" y="-8.60261" width="191.023" height="164.153"/>
<path d="M39.0022 19.5374C27.4514 22.6324 15.8893 25.658 4.36204 28.8409C-3.65787 31.055 -10.7266 35.0347 -16.6099 40.9781C-26.1701 50.6368 -28.1216 62.4137 -25.6823 75.194C-24.3131 82.3587 -21.9688 89.2694 -18.6482 95.7954C-13.4267 106.063 -4.78355 112.177 5.81589 116.021C19.945 121.143 34.5849 124.332 49.1391 127.877C51.2693 128.392 53.4077 128.884 55.5643 129.255C59.43 129.921 63.0063 128.101 64.1341 125.01C65.3675 121.638 63.9917 117.828 60.2524 116.093C54.0806 113.227 47.7073 110.8 41.4438 108.133C40.2984 107.643 39.041 107.357 38.0997 106.386C36.2221 104.434 36.4295 102.126 38.6101 100.477C39.78 99.5988 41.1337 99.352 42.472 98.9934C65.4568 92.8274 88.4362 86.6411 111.432 80.5445C114.739 79.6656 116.653 77.8856 116.982 74.4082C117.3 71.0566 115.58 68.9901 112.839 67.5737C110.821 66.5286 108.779 67.1553 106.758 67.6968C93.0786 71.3623 79.3988 75.0277 65.719 78.6932C64.5024 79.0192 63.3161 79.4312 61.993 79.1702C60.3258 78.842 59.2553 77.9557 58.9658 76.2807C58.6451 74.462 59.3976 73.0799 61.0238 72.2821C61.8437 71.8813 62.7901 71.7364 63.689 71.4955C80.8428 66.8992 97.9984 62.3096 115.149 57.6997C119.574 56.5067 122.161 53.5105 121.873 50.0827C121.476 45.3585 117.316 42.7291 112.218 44.0878C95.0574 48.6572 77.909 53.2738 60.7534 57.8634C59.7463 58.1332 58.7403 58.4607 57.7177 58.6188C55.5474 58.9541 54.1306 57.965 53.5054 55.902C52.8603 53.7647 53.82 52.2909 55.6836 51.3788C56.5035 50.978 57.448 50.8263 58.3469 50.5855C73.2568 46.5904 88.1735 42.5935 103.083 38.5984C108.261 37.2112 110.35 34.3557 109.318 30.0987C108.315 25.9787 105.572 24.447 100.422 25.4503C83.2104 28.8021 66.5448 34.2743 49.5655 38.5487C47.2247 39.1397 45.4487 39 44.6303 36.3515C43.8391 33.8043 45.2402 32.4367 47.2466 31.4356C47.9638 31.0841 48.8056 30.9817 49.5896 30.7716C59.0046 28.2488 68.43 25.7378 77.8378 23.1881C79.3972 22.763 81.0045 22.354 82.4492 21.6627C86.2156 19.8497 87.421 17.1296 86.2892 13.5005C85.2203 10.079 82.8267 8.63471 78.7337 9.09411C77.3614 9.24456 76.0034 9.6374 74.6652 9.99598C62.771 13.1613 50.8909 16.3518 39.0022 19.5374Z"/>
</mask>
<path d="M39.0022 19.5374C27.4514 22.6324 15.8893 25.658 4.36204 28.8409C-3.65787 31.055 -10.7266 35.0347 -16.6099 40.9781C-26.1701 50.6368 -28.1216 62.4137 -25.6823 75.194C-24.3131 82.3587 -21.9688 89.2694 -18.6482 95.7954C-13.4267 106.063 -4.78355 112.177 5.81589 116.021C19.945 121.143 34.5849 124.332 49.1391 127.877C51.2693 128.392 53.4077 128.884 55.5643 129.255C59.43 129.921 63.0063 128.101 64.1341 125.01C65.3675 121.638 63.9917 117.828 60.2524 116.093C54.0806 113.227 47.7073 110.8 41.4438 108.133C40.2984 107.643 39.041 107.357 38.0997 106.386C36.2221 104.434 36.4295 102.126 38.6101 100.477C39.78 99.5988 41.1337 99.352 42.472 98.9934C65.4568 92.8274 88.4362 86.6411 111.432 80.5445C114.739 79.6656 116.653 77.8856 116.982 74.4082C117.3 71.0566 115.58 68.9901 112.839 67.5737C110.821 66.5286 108.779 67.1553 106.758 67.6968C93.0786 71.3623 79.3988 75.0277 65.719 78.6932C64.5024 79.0192 63.3161 79.4312 61.993 79.1702C60.3258 78.842 59.2553 77.9557 58.9658 76.2807C58.6451 74.462 59.3976 73.0799 61.0238 72.2821C61.8437 71.8813 62.7901 71.7364 63.689 71.4955C80.8428 66.8992 97.9984 62.3096 115.149 57.6997C119.574 56.5067 122.161 53.5105 121.873 50.0827C121.476 45.3585 117.316 42.7291 112.218 44.0878C95.0574 48.6572 77.909 53.2738 60.7534 57.8634C59.7463 58.1332 58.7403 58.4607 57.7177 58.6188C55.5474 58.9541 54.1306 57.965 53.5054 55.902C52.8603 53.7647 53.82 52.2909 55.6836 51.3788C56.5035 50.978 57.448 50.8263 58.3469 50.5855C73.2568 46.5904 88.1735 42.5935 103.083 38.5984C108.261 37.2112 110.35 34.3557 109.318 30.0987C108.315 25.9787 105.572 24.447 100.422 25.4503C83.2104 28.8021 66.5448 34.2743 49.5655 38.5487C47.2247 39.1397 45.4487 39 44.6303 36.3515C43.8391 33.8043 45.2402 32.4367 47.2466 31.4356C47.9638 31.0841 48.8056 30.9817 49.5896 30.7716C59.0046 28.2488 68.43 25.7378 77.8378 23.1881C79.3972 22.763 81.0045 22.354 82.4492 21.6627C86.2156 19.8497 87.421 17.1296 86.2892 13.5005C85.2203 10.079 82.8267 8.63471 78.7337 9.09411C77.3614 9.24456 76.0034 9.6374 74.6652 9.99598C62.771 13.1613 50.8909 16.3518 39.0022 19.5374Z" fill="white"/>
<path d="M39.0022 19.5374C27.4514 22.6324 15.8893 25.658 4.36204 28.8409C-3.65787 31.055 -10.7266 35.0347 -16.6099 40.9781C-26.1701 50.6368 -28.1216 62.4137 -25.6823 75.194C-24.3131 82.3587 -21.9688 89.2694 -18.6482 95.7954C-13.4267 106.063 -4.78355 112.177 5.81589 116.021C19.945 121.143 34.5849 124.332 49.1391 127.877C51.2693 128.392 53.4077 128.884 55.5643 129.255C59.43 129.921 63.0063 128.101 64.1341 125.01C65.3675 121.638 63.9917 117.828 60.2524 116.093C54.0806 113.227 47.7073 110.8 41.4438 108.133C40.2984 107.643 39.041 107.357 38.0997 106.386C36.2221 104.434 36.4295 102.126 38.6101 100.477C39.78 99.5988 41.1337 99.352 42.472 98.9934C65.4568 92.8274 88.4362 86.6411 111.432 80.5445C114.739 79.6656 116.653 77.8856 116.982 74.4082C117.3 71.0566 115.58 68.9901 112.839 67.5737C110.821 66.5286 108.779 67.1553 106.758 67.6968C93.0786 71.3623 79.3988 75.0277 65.719 78.6932C64.5024 79.0192 63.3161 79.4312 61.993 79.1702C60.3258 78.842 59.2553 77.9557 58.9658 76.2807C58.6451 74.462 59.3976 73.0799 61.0238 72.2821C61.8437 71.8813 62.7901 71.7364 63.689 71.4955C80.8428 66.8992 97.9984 62.3096 115.149 57.6997C119.574 56.5067 122.161 53.5105 121.873 50.0827C121.476 45.3585 117.316 42.7291 112.218 44.0878C95.0574 48.6572 77.909 53.2738 60.7534 57.8634C59.7463 58.1332 58.7403 58.4607 57.7177 58.6188C55.5474 58.9541 54.1306 57.965 53.5054 55.902C52.8603 53.7647 53.82 52.2909 55.6836 51.3788C56.5035 50.978 57.448 50.8263 58.3469 50.5855C73.2568 46.5904 88.1735 42.5935 103.083 38.5984C108.261 37.2112 110.35 34.3557 109.318 30.0987C108.315 25.9787 105.572 24.447 100.422 25.4503C83.2104 28.8021 66.5448 34.2743 49.5655 38.5487C47.2247 39.1397 45.4487 39 44.6303 36.3515C43.8391 33.8043 45.2402 32.4367 47.2466 31.4356C47.9638 31.0841 48.8056 30.9817 49.5896 30.7716C59.0046 28.2488 68.43 25.7378 77.8378 23.1881C79.3972 22.763 81.0045 22.354 82.4492 21.6627C86.2156 19.8497 87.421 17.1296 86.2892 13.5005C85.2203 10.079 82.8267 8.63471 78.7337 9.09411C77.3614 9.24456 76.0034 9.6374 74.6652 9.99598C62.771 13.1613 50.8909 16.3518 39.0022 19.5374Z" stroke="#26DFB3" stroke-width="14" mask="url(#path-3-outside-2_137_10636)"/>
</svg>
